<svg width="148" height="149" viewBox="0 0 148 149" fill="none" xmlns="http://www.w3.org/2000/svg">
<g filter="url(#filter0_d_11_50)">
<circle cx="74" cy="60.2529" r="30" transform="rotate(-180 74 60.2529)" fill="#F53838"/>
<circle cx="74" cy="60.2529" r="29" transform="rotate(-180 74 60.2529)" stroke="#F53838" stroke-width="2"/>
</g>
<path d="M82.75 61.503H67.925L72.4625 66.953C72.6747 67.2082 72.7768 67.5373 72.7463 67.8679C72.7158 68.1984 72.5553 68.5033 72.3 68.7155C72.0447 68.9276 71.7156 69.0297 71.3851 68.9992C71.0546 68.9688 70.7497 68.8082 70.5375 68.553L64.2875 61.053C64.2455 60.9933 64.2078 60.9306 64.175 60.8655C64.175 60.803 64.175 60.7655 64.0875 60.703C64.0308 60.5596 64.0012 60.4071 64 60.253C64.0012 60.0988 64.0308 59.9463 64.0875 59.803C64.0875 59.7405 64.0875 59.703 64.175 59.6405C64.2078 59.5753 64.2455 59.5126 64.2875 59.453L70.5375 51.953C70.655 51.8118 70.8022 51.6984 70.9686 51.6206C71.1349 51.5428 71.3164 51.5027 71.5 51.503C71.7921 51.5024 72.0751 51.6041 72.3 51.7905C72.4266 51.8954 72.5312 52.0243 72.6079 52.1697C72.6846 52.3151 72.7318 52.4743 72.7469 52.638C72.762 52.8017 72.7447 52.9668 72.6959 53.1238C72.6471 53.2808 72.5678 53.4266 72.4625 53.553L67.925 59.003H82.75C83.0815 59.003 83.3995 59.1346 83.6339 59.3691C83.8683 59.6035 84 59.9214 84 60.253C84 60.5845 83.8683 60.9024 83.6339 61.1368C83.3995 61.3713 83.0815 61.503 82.75 61.503Z" fill="white"/>
<defs>
<filter id="filter0_d_11_50" x="0" y="0.25293" width="148" height="148" filterUnits="userSpaceOnUse" color-interpolation-filters="sRGB">
<feFlood flood-opacity="0" result="BackgroundImageFix"/>
<feColorMatrix in="SourceAlpha" type="matrix" values="0 0 0 0 0 0 0 0 0 0 0 0 0 0 0 0 0 0 127 0" result="hardAlpha"/>
<feOffset dy="14"/>
<feGaussianBlur stdDeviation="22"/>
<feColorMatrix type="matrix" values="0 0 0 0 0.0561111 0 0 0 0 0.0777333 0 0 0 0 0.133333 0 0 0 0.08 0"/>
<feBlend mode="normal" in2="BackgroundImageFix" result="effect1_dropShadow_11_50"/>
<feBlend mode="normal" in="SourceGraphic" in2="effect1_dropShadow_11_50" result="shape"/>
</filter>
</defs>
</svg>
