<svg width="60" height="61" viewBox="0 0 60 61" fill="none" xmlns="http://www.w3.org/2000/svg">
<circle cx="30" cy="30.2529" r="29" transform="rotate(-180 30 30.2529)" stroke="#F53838" stroke-width="2"/>
<path d="M21.25 31.503L36.075 31.503L31.5375 36.953C31.3253 37.2082 31.2232 37.5373 31.2537 37.8679C31.2842 38.1984 31.4447 38.5033 31.7 38.7155C31.9553 38.9276 32.2844 39.0297 32.6149 38.9992C32.9454 38.9688 33.2503 38.8082 33.4625 38.553L39.7125 31.053C39.7545 30.9933 39.7922 30.9306 39.825 30.8655C39.825 30.803 39.825 30.7655 39.9125 30.703C39.9692 30.5596 39.9988 30.4071 40 30.253C39.9988 30.0988 39.9692 29.9463 39.9125 29.803C39.9125 29.7405 39.9125 29.703 39.825 29.6405C39.7922 29.5753 39.7545 29.5126 39.7125 29.453L33.4625 21.953C33.345 21.8118 33.1978 21.6984 33.0314 21.6206C32.8651 21.5428 32.6836 21.5027 32.5 21.503C32.2079 21.5024 31.9249 21.6041 31.7 21.7905C31.5734 21.8954 31.4688 22.0243 31.3921 22.1697C31.3154 22.3151 31.2682 22.4743 31.2531 22.638C31.238 22.8017 31.2553 22.9668 31.3041 23.1238C31.3529 23.2808 31.4322 23.4266 31.5375 23.553L36.075 29.003H21.25C20.9185 29.003 20.6005 29.1346 20.3661 29.3691C20.1317 29.6035 20 29.9214 20 30.253C20 30.5845 20.1317 30.9024 20.3661 31.1368C20.6005 31.3713 20.9185 31.503 21.25 31.503Z" fill="#F53838"/>
</svg>
